<?xml BUILD="1.0" encoding="utf-8"?>
<!-- Generator: Adobe Illustrator 16.0.0, SVG Export Plug-In . SVG BUILD: 6.00 Build 0)  -->
<!DOCTYPE svg PUBLIC "-//W3C//DTD SVG 1.1//EN" "http://www.w3.org/Graphics/SVG/1.1/DTD/svg11.dtd">
<svg BUILD="1.1" id="Layer_1" xmlns="http://www.w3.org/2000/svg" x="0px"
     y="0px"
     width="3825px" height="1081.231px" viewBox="0 0 3825 1081.231" enable-background="new 0 0 3825 1081.231"
     xml:space="preserve">
<g>
	<g>
		<path fill-rule="evenodd" clip-rule="evenodd" d="M-8,1079.977c0-203.642,0-407.282,0-610.924c1.615-0.3,3.256-0.956,4.842-0.842
			c9.788,0.702,18.286-2,25.095-9.229c4.615-4.899,10.175-8.647,16.01-11.649c4.438-2.283,9.9-4.441,14.596-3.909
			c6.804,0.771,13.167,3.967,16.839,10.933c1.511,2.868,2.945,6.345,6.827,7.521c6.507,1.972,13.416,4.073,19.799,4.254
			c13.45,0.381,22.447,8.804,32.907,14.715c3.879,2.192,6.554,6.533,10.99,7.583c8.695,2.059,17.362,3.994,25.552,7.759
			c4.786,2.2,9.708,4.167,15.307,2.546c2.205-0.638,4.623,0.088,6.814,1.022c1.881,0.802,4.068,1.501,5.841,0.738
			c7.061-3.039,15.342-2.681,21.799-6.183c8.174-4.433,17.809-0.958,25.394-6.378c0.574-0.411,1.896,0.211,2.866,0.371
			c7.328,1.208,14.113-0.825,20.782-3.504c2.292-0.92,3.73-2.689,4.733-4.891c0.472-1.034,0.806-2.521,1.637-2.94
			c7.412-3.734,13.96-8.929,21.556-12.389c4.734-2.157,10.639-2.684,13.614-7.704c3.357-5.666,8.057-9.254,14.057-11.884
			c4.222-1.851,8.786-2.828,12.73-5.502c9.334-6.33,19.04-12.029,29.465-16.476c7.306-3.116,14.572-6.398,21.573-10.137
			c9.197-4.912,18.784-4.089,25.031,3.382c5.192,6.209,10.344,12.571,13.478,20.175c1.52,3.688,3.81,5.63,7.97,5.269
			c10.377-0.901,20.737-0.752,31.154-0.102c10.127,0.631,17.487,3.406,19.442,13.799c0.545,2.897,2.663,4.66,5.816,5.483
			c3.639,0.949,7.493,1.994,8.429,6.746c0.278,1.412,2.072,3.989,3.067,2.918c2.162-2.323,5.596-0.744,7.468-3.402
			c1.337-1.898,3.198-2.1,5.569-0.603c2.068,1.307,4.824,2.862,7.385,0.641c3.105-2.694,6.675-4.942,8.411-8.988
			c1.829-4.263,5.039-4.197,8.678-2.454c1.613,0.772,3.442,3.012,4.834,2.009c6.256-4.505,13.596-6.268,20.591-8.914
			c0.146-0.056,0.238-0.25,0.384-0.314c5.81-2.586,8.709-8.332,13.295-12.252c4.923-4.208,15.525-5.516,19.752-0.943
			c5.234,5.661,11.61,5.618,17.115,3.687c9.408-3.3,18.014,0.73,26.874,1.275c5.332,0.328,10.733,2.005,16.105,0.778
			c11.287-2.581,22.458-2.849,33.441,1.055c7.5,2.665,13.307,0.144,18.688-4.908c2.978-2.796,6.263-4.97,10.583-2.425
			c2.106,1.241,4.177,1.531,6.585,0.299c7.367-3.769,11.147-3.118,17.065,2.41c0.93,0.868,1.812,1.94,3.41,1.746
			c5.939-0.721,10.991,1.711,15.432,5.155c4.626,3.588,9.063,4.129,13.815,0.724c1.628-1.167,3.161-1.437,5.124-1.007
			c1.916,0.42,4.283,1.006,5.876,0.271c6.161-2.846,12.695-4.386,19.042-6.525c4.416-1.488,8.563-2.824,13.193-2.906
			c4.747-0.084,9.83-0.794,12.796-4.443c2.313-2.846,5.18-3.85,7.927-4.266c3.79-0.574,7.358-1.947,11.095-2.431
			c9.357-1.212,16.212-5.981,21.979-13.338c6.146-7.84,13.536-14.427,22.507-19.216c4.559-2.433,9.037-5.474,12.637-9.139
			c4.975-5.065,9.316-10.813,13.513-16.57c5.214-7.151,12.098-7.996,20.293-2.339c4.784,3.301,9.228,7.001,13.833,10.512
			c8.859,6.754,18.484,12.066,25.668,21.431c7.014,9.145,16.887,16.159,25.796,23.768c6.932,5.92,14.608,10.923,20.78,17.803
			c1.798,2.005,4.237,4.095,7.751,3.729c6.458-0.673,12.899-2.953,19.47,0.013c1.638,0.74,4.042,0.417,5.896-0.112
			c2.444-0.698,4.548-0.394,6.754,0.575c3.401,1.493,6.394,1.426,8.684-2.115c1.164-1.799,2.654-3.406,4.117-4.989
			c3.99-4.317,8.477-8.604,14.18-9.614c3.408-0.604,5.792-1.752,8.16-3.798c1.628-1.407,3.011-3.097,5.099-3.955
			c7.483-3.075,13.924-7.578,19.412-13.599c3.241-3.557,6.895-6.897,12.177-7.137c8.869-0.402,16.489-2.979,22.998-9.702
			c7.126-7.361,15.613-9.885,24.626-2.32c0.55,0.462,1.629,0.707,2.322,0.523c7.053-1.874,11.089,2.275,15.187,7.009
			c2.711,3.132,4.061,7.484,7.132,9.8c2.715,2.047,3.558,3.595,3.382,6.777c-0.19,3.418,1.126,7.321,4.267,8.449
			c8.167,2.934,14.02,8.275,18.955,15.096c2.723,3.764,5.678,7.385,8.779,10.846c10.661,11.896,22.143,6.011,27.467-2.484
			c3.185-5.081,7.008-9.623,10.259-14.598c2.693-4.121,6.037-6.521,11.215-5.474c1.343,0.271,2.71-0.198,3.777-1.026
			c6.43-4.99,13.581-9.333,19.028-15.242c7.158-7.762,17.152-11.539,24.241-19.377c4.866-5.38,12.537-7.82,17.119-13.945
			c0.825-1.103,2.419-1.715,3.759-2.336c8.949-4.145,17.684-8.014,24.833-15.679c8.659-9.286,19.124-16.909,29.747-24.044
			c3.011-2.022,5.021-4.811,7.175-7.517c3.944-4.955,8.005-9.757,13.456-13.153c1.036-0.645,1.358-1.953,2.094-2.625
			c5.133-4.694,6.545-12.25,12.618-16.178c2.761-1.787,5.248-4.125,8.199-5.464c7.608-3.449,14.376-8.77,23.211-9.601
			c3.784-0.356,8.573-0.796,11.001-3.846c6.914-8.682,14.748-16.524,21.853-24.977c9.604-11.426,21.884-20.381,30.049-33.078
			c0.493-0.767,1.61-1.132,2.438-1.682c8.371-5.562,17.799-9.405,25.664-15.8c0.728-0.592,1.729-1.023,2.66-1.165
			c9.739-1.476,19.532-3.159,29.375-2.003c4.613,0.542,9.953,1.851,12.447,6.068c3.884,6.568,7.047,13.462,12.355,19.198
			c3.293,3.558,6.957,6.714,10.885,9.158c6.352,3.952,12.129,8.727,19.127,11.875c8.422,3.788,16.166,8.995,23.111,15.396
			c5.327,4.911,12.306,7.672,18.111,12.129c7.177,5.51,15.236,9.517,24.434,10.238c3.878,0.304,6.928,1.597,10.387,3.428
			c5.623,2.977,12.077,4.727,18.383,5.964c5.763,1.13,10.792,3.746,15.271,6.882c8.819,6.174,18.014,11.68,27.249,17.143
			c3.631,2.147,7.496,3.318,11.803,1.212c2.963-1.449,6.007-1.05,8.97,0.74c5.75,3.476,11.706,6.601,17.505,10.001
			c3.548,2.081,5.632,5.515,9.12,7.497c10.584,6.017,22.404,9.21,32.756,16.172c8.965,6.028,20.09,8.82,30.196,13.191
			c2.511,1.087,4.818,1.362,7.1-0.125c3.669-2.391,7.838-3.313,11.943-4.546c3.476-1.043,6.643-2.859,9.87-4.608
			c5.475-2.966,11.416-5.036,16.084-9.415c0.646-0.605,1.861-0.586,2.8-0.896c8.693-2.877,17.53-6.22,24.431-11.921
			c7.485-6.184,16.075-10.073,24.031-15.198c3.424-2.206,6.931-2.104,10.412-0.64c2.85,1.199,5.37,1.106,8.094-0.31
			c9.979-5.189,19.797-10.707,28.66-17.62c8.82-6.878,19.891-7.607,29.745-11.603c2.957-1.199,6.096-1.568,8.184-4.252
			c0.705-0.907,1.53-1.22,2.584-1.12c9.583,0.909,17.665-2.979,25.515-7.815c12.573-7.745,24.121-16.958,36.361-25.173
			c8.155-5.474,17.031-9.693,25.273-15.177c10.504-6.989,18.216-15.582,23.902-26.369c2.617-4.965,9.067-9.64,14.75-9.626
			c5.562,0.014,11.283-0.776,16.643,0.275c6.779,1.329,14.166,0.959,19.953,6.324c3.094,2.869,6.647,5.592,10.752,7.135
			c6.789,2.552,13.149,5.503,15.52,13.233c0.221,0.72,0.834,1.547,1.488,1.87c7.265,3.587,11.445,10.462,16.824,15.984
			c9.118,9.358,18.323,18.771,26.204,29.139c3.973,5.229,8.614,7.842,14.188,8.614c11.786,1.632,21.144,8.104,30.77,14.079
			c2.735,1.698,5.888,3.698,7.167,6.775c2.808,6.752,7.6,11.768,13.066,16.226c2.482,2.023,4.527,4.32,6.627,6.691
			c3.388,3.823,6.03,8.271,10.492,11.233c10.521,6.983,20.645,14.718,29.346,23.749c5.376,5.58,11.142,10.025,18.021,12.539
			c9.211,3.366,14.965,11.106,22.848,15.998c4.719,2.929,7.967,7.944,12.391,10.372c12.586,6.905,21.624,18.044,33.291,25.93
			c2.644,1.787,5.065,3.101,8.227,2.663c2.694-0.373,5.049,0.267,6.654,2.502c4.24,5.907,9.489,11.086,12.617,17.802
			c2.223,4.774,6.956,6.879,11.338,8.403c2.588,0.9,6.393,1.719,9.323-0.578c4.71-3.69,9.402-7.354,12.714-12.526
			c4.784-7.469,10.68-14.028,18.736-17.947c5.541-2.695,7.526-4.609,7.348-10.592c-0.07-2.402,0.206-4.313,2.852-5.057
			c1.23-0.346,1.98-1.249,2.373-2.388c1.862-5.391,6.299-8.772,9.959-12.741c2.053-2.225,5.018-3.145,7.751-2.618
			c3.322,0.641,5.517-0.681,8.212-2.132c4.859-2.616,10.042-4.602,15.299-0.372c3.881,3.123,8.341,5.63,11.794,9.146
			c3.013,3.068,6.362,3.976,10.226,4.15c8.322,0.375,15.588,2.883,21.037,9.616c3.055,3.776,6.839,6.802,11.21,8.941
			c5.092,2.491,10.11,5.003,14.093,9.215c0.844,0.893,2.45,1.868,3.464,1.655c4.274-0.898,6.755,2.207,9.825,3.941
			c4.767,2.691,7.77,7.237,11.146,11.299c1.927,2.318,4.127,3.178,6.529,2.156c3.553-1.512,6.947-1.663,10.638-0.868
			c2.471,0.532,4.976-0.064,7.31-1.092c2.054-0.905,3.988-0.875,6.258-0.35c7.844,1.812,15.385,2.105,20.742-5.731
			c1.275-1.867,3.256-3.338,5.126-4.699c11.378-8.285,21.222-18.363,32.081-27.246c4.535-3.71,7.502-8.813,11.631-12.729
			c11.072-10.502,24.508-17.988,36.517-27.347c4.688-3.654,12.285-2.205,15.951,1.88c1.657,1.847,3.152,3.85,4.605,5.866
			c6.103,8.466,12.901,16.383,22.118,21.428c9.955,5.449,17.936,12.856,25.137,21.445c3.216,3.835,6.356,8.274,11.632,9.503
			c6.707,1.563,13.215,3.963,20.162,4.615c2.192,0.205,5.046,1.023,6.252,2.594c3.403,4.425,7.908,5.917,12.97,5.949
			c9.896,0.062,18.692,4.237,27.744,7.25c4.301,1.432,8.147,3.667,12.836,1.965c1.137-0.413,2.274-0.05,3.271,0.736
			c5.195,4.098,9.966,3.289,15.079-0.607c4.302-3.277,9.222-5.676,15.04-4.842c1.924,0.275,3.062-1.312,4.08-2.49
			c3.549-4.108,9.826-5.299,14.648-2.558c2.334,1.327,4.588,2.662,7.417,0.988c5.189-3.07,8.743-0.471,12.449,3.256
			c3.862,3.881,9.273,6,14.467,4.708c5.411-1.347,11.037-2.083,16.283-4.19c1.159-0.465,2.632-0.473,3.9-0.287
			c6.161,0.903,12.281,2.121,18.46,2.867c3.441,0.416,7.117,0.969,10.422-0.239c7.749-2.832,16.02-1.865,23.889-3.685
			c1.424-0.329,2.906,0.395,4.365,0.701c6.424,1.351,13.037,4.169,18.513-2.587c2.188-2.698,5.541-3.177,9.082-3.078
			c7.617,0.213,12.919,3.801,17.313,9.846c2.887,3.974,7.179,7.159,11.988,8.065c4.379,0.825,8.456,1.956,11.799,4.669
			c3.318,2.692,6.029,3.038,9.698,0.592c3.361-2.24,6.655-1.669,8.599,2.506c0.625,1.342,1.476,2.613,2.401,3.775
			c4.251,5.335,8.038,7.239,12.036,5.001c3.394-1.9,5.31-1.113,8.177,1.015c5.025,3.727,7.341,2.771,10.162-2.892
			c0.554-1.109,0.995-2.123,2.676-2.536c6.167-1.517,10.916-4.446,12.174-11.624c0.762-4.345,4.696-7.648,8.645-8.111
			c11.095-1.301,22.235-3.239,33.517-1.382c9.621,1.584,11.394,0.435,16.312-8.404c2.095-3.766,4.61-7.322,7.171-10.801
			c5.688-7.729,12.434-13.347,22.998-12.813c3.862,0.195,5.91,2.833,8.716,4.297c11.462,5.979,23.597,10.509,34.931,16.768
			c8.382,4.629,15.688,11.17,25.361,13.602c5.127,1.289,10.496,4.25,12.856,8.698c3.57,6.727,9.771,8.481,15.523,11.582
			c9.275,5,19.918,8.098,25.771,18.062c1.033,1.758,3.058,2.678,4.954,3.19c4.456,1.205,8.826,3.141,13.537,2.872
			c5.612-0.32,11.196-1.243,16.113,2.734c0.697,0.564,2.339,0.362,3.384,0.023c3.802-1.233,7.104,0.484,10.568,1.437
			c11.836,3.256,23.112,9.934,36.164,5.931c1.059-0.325,2.429-0.303,3.462,0.078c3.628,1.342,6.771-0.101,10.104-1.187
			c5.365-1.747,10.196-4.732,15.805-5.999c7.791-1.76,15.978-2.762,22.027-9.062c4.448-4.634,10.452-6.946,15.98-9.952
			c3.349-1.821,6.523-5.251,9.914-5.438c7.193-0.396,13.957-2.585,20.979-3.44c6.213-0.756,11.131-2.684,14.676-8.531
			c9.223-15.218,19.563-12.965,31.813-7.757c6.439,2.737,12.113,7.423,17.091,12.663c1.686,1.773,3.87,3.127,5.968,4.445
			c5.542,3.479,11.729,3.883,18.064,3.636c2.934-0.114,5.309,0.699,5.081,4.433c-0.102,1.659,0.009,3.332,0.009,4.998
			c0.001,197.805,0.001,395.61,0,593.416c0,1.666-0.113,3.339-0.005,4.997c0.212,3.268-1.345,4.542-4.479,4.331
			c-1.327-0.09-2.665,0.006-3.998,0.006c-1274.818,0.001-2549.637,0.001-3824.455-0.016C-3.357,1080.343-5.679,1080.104-8,1079.977z
			"/>
        <path fill-rule="evenodd" clip-rule="evenodd" fill="none" d="M-8,1079.977c2.322,0.127,4.644,0.366,6.965,0.366
			c1274.818,0.017,2549.637,0.017,3824.455,0.016c1.333,0,2.671-0.096,3.998-0.006c3.134,0.211,4.69-1.063,4.479-4.331
			c-0.108-1.658,0.005-3.331,0.005-4.997c0.001-197.806,0.001-395.611,0-593.416c0-1.666-0.11-3.338-0.009-4.998
			c0.228-3.734-2.147-4.547-5.081-4.433c-6.335,0.247-12.522-0.156-18.064-3.636c-2.098-1.318-4.282-2.671-5.968-4.445
			c-4.978-5.24-10.651-9.925-17.091-12.663c-12.25-5.208-22.59-7.461-31.813,7.757c-3.545,5.848-8.463,7.775-14.676,8.531
			c-7.021,0.854-13.785,3.044-20.979,3.44c-3.391,0.187-6.565,3.617-9.914,5.438c-5.528,3.006-11.532,5.318-15.98,9.952
			c-6.05,6.299-14.236,7.302-22.027,9.062c-5.608,1.267-10.439,4.252-15.805,5.999c-3.333,1.086-6.476,2.529-10.104,1.187
			c-1.033-0.381-2.403-0.403-3.462-0.078c-13.052,4.003-24.328-2.675-36.164-5.931c-3.465-0.953-6.767-2.669-10.568-1.437
			c-1.045,0.339-2.687,0.541-3.384-0.023c-4.917-3.978-10.501-3.054-16.113-2.734c-4.711,0.269-9.081-1.667-13.537-2.872
			c-1.896-0.513-3.921-1.433-4.954-3.19c-5.854-9.964-16.496-13.062-25.771-18.062c-5.752-3.101-11.953-4.855-15.523-11.582
			c-2.36-4.448-7.729-7.409-12.856-8.698c-9.674-2.431-16.979-8.973-25.361-13.602c-11.334-6.259-23.469-10.79-34.931-16.768
			c-2.806-1.463-4.854-4.102-8.716-4.297c-10.564-0.534-17.31,5.085-22.998,12.813c-2.561,3.479-5.076,7.035-7.171,10.801
			c-4.918,8.839-6.69,9.988-16.312,8.404c-11.281-1.857-22.422,0.081-33.517,1.382c-3.948,0.463-7.883,3.766-8.645,8.111
			c-1.258,7.177-6.007,10.107-12.174,11.624c-1.681,0.413-2.122,1.427-2.676,2.536c-2.821,5.663-5.137,6.619-10.162,2.892
			c-2.867-2.127-4.783-2.915-8.177-1.015c-3.998,2.237-7.785,0.333-12.036-5.001c-0.926-1.162-1.776-2.433-2.401-3.775
			c-1.943-4.175-5.237-4.746-8.599-2.506c-3.669,2.445-6.38,2.1-9.698-0.592c-3.343-2.713-7.42-3.844-11.799-4.669
			c-4.81-0.906-9.102-4.091-11.988-8.065c-4.395-6.045-9.696-9.632-17.313-9.846c-3.541-0.099-6.895,0.38-9.082,3.078
			c-5.476,6.756-12.089,3.938-18.513,2.587c-1.459-0.306-2.941-1.03-4.365-0.701c-7.869,1.82-16.14,0.853-23.889,3.685
			c-3.305,1.208-6.98,0.655-10.422,0.239c-6.179-0.747-12.299-1.964-18.46-2.867c-1.269-0.186-2.741-0.179-3.9,0.287
			c-5.246,2.106-10.872,2.843-16.283,4.19c-5.193,1.292-10.604-0.827-14.467-4.708c-3.706-3.727-7.26-6.326-12.449-3.256
			c-2.829,1.673-5.083,0.338-7.417-0.988c-4.822-2.741-11.1-1.55-14.648,2.558c-1.019,1.178-2.156,2.766-4.08,2.49
			c-5.818-0.834-10.738,1.564-15.04,4.842c-5.113,3.896-9.884,4.706-15.079,0.607c-0.997-0.787-2.135-1.149-3.271-0.736
			c-4.688,1.703-8.535-0.533-12.836-1.965c-9.052-3.013-17.849-7.188-27.744-7.25c-5.062-0.032-9.566-1.524-12.97-5.949
			c-1.206-1.571-4.06-2.389-6.252-2.594c-6.947-0.652-13.455-3.053-20.162-4.615c-5.275-1.229-8.416-5.667-11.632-9.503
			c-7.201-8.589-15.182-15.997-25.137-21.445c-9.217-5.045-16.016-12.962-22.118-21.428c-1.453-2.016-2.948-4.019-4.605-5.866
			c-3.666-4.084-11.263-5.534-15.951-1.88c-12.009,9.359-25.444,16.844-36.517,27.347c-4.129,3.916-7.096,9.019-11.631,12.729
			c-10.859,8.883-20.703,18.961-32.081,27.246c-1.87,1.361-3.851,2.832-5.126,4.699c-5.357,7.837-12.898,7.543-20.742,5.731
			c-2.27-0.525-4.204-0.555-6.258,0.35c-2.334,1.028-4.839,1.624-7.31,1.092c-3.69-0.795-7.085-0.645-10.638,0.868
			c-2.402,1.022-4.603,0.162-6.529-2.156c-3.377-4.063-6.38-8.608-11.146-11.299c-3.07-1.734-5.551-4.839-9.825-3.941
			c-1.014,0.213-2.62-0.763-3.464-1.655c-3.982-4.211-9.001-6.724-14.093-9.215c-4.371-2.139-8.155-5.165-11.21-8.941
			c-5.449-6.733-12.715-9.241-21.037-9.616c-3.863-0.174-7.213-1.082-10.226-4.15c-3.453-3.516-7.913-6.023-11.794-9.146
			c-5.257-4.23-10.439-2.244-15.299,0.372c-2.695,1.451-4.89,2.773-8.212,2.132c-2.733-0.527-5.698,0.394-7.751,2.618
			c-3.66,3.969-8.097,7.35-9.959,12.741c-0.393,1.139-1.143,2.042-2.373,2.388c-2.646,0.744-2.922,2.654-2.852,5.057
			c0.179,5.983-1.807,7.897-7.348,10.592c-8.057,3.918-13.952,10.478-18.736,17.947c-3.312,5.171-8.004,8.836-12.714,12.526
			c-2.931,2.297-6.735,1.479-9.323,0.578c-4.382-1.524-9.115-3.629-11.338-8.403c-3.128-6.716-8.377-11.896-12.617-17.802
			c-1.605-2.235-3.96-2.875-6.654-2.502c-3.161,0.438-5.583-0.876-8.227-2.663c-11.667-7.886-20.705-19.025-33.291-25.93
			c-4.424-2.428-7.672-7.443-12.391-10.372c-7.883-4.892-13.637-12.632-22.848-15.998c-6.88-2.514-12.646-6.959-18.021-12.539
			c-8.701-9.031-18.825-16.766-29.346-23.749c-4.462-2.962-7.104-7.41-10.492-11.233c-2.1-2.371-4.145-4.668-6.627-6.691
			c-5.467-4.458-10.259-9.473-13.066-16.226c-1.279-3.077-4.432-5.077-7.167-6.775c-9.626-5.975-18.983-12.447-30.77-14.079
			c-5.573-0.772-10.215-3.385-14.188-8.614c-7.881-10.368-17.086-19.781-26.204-29.139c-5.379-5.522-9.56-12.397-16.824-15.984
			c-0.654-0.323-1.268-1.15-1.488-1.87c-2.37-7.73-8.73-10.682-15.52-13.233c-4.104-1.543-7.658-4.266-10.752-7.135
			c-5.787-5.365-13.174-4.995-19.953-6.324c-5.359-1.052-11.081-0.261-16.643-0.275c-5.683-0.014-12.133,4.661-14.75,9.626
			c-5.687,10.787-13.398,19.38-23.902,26.369c-8.242,5.483-17.118,9.703-25.273,15.177c-12.24,8.215-23.788,17.428-36.361,25.173
			c-7.85,4.836-15.932,8.724-25.515,7.815c-1.054-0.1-1.879,0.213-2.584,1.12c-2.088,2.684-5.227,3.053-8.184,4.252
			c-9.854,3.996-20.925,4.725-29.745,11.603c-8.863,6.913-18.682,12.431-28.66,17.62c-2.724,1.417-5.244,1.509-8.094,0.31
			c-3.481-1.464-6.988-1.566-10.412,0.64c-7.956,5.125-16.546,9.014-24.031,15.198c-6.9,5.701-15.737,9.043-24.431,11.921
			c-0.938,0.311-2.154,0.292-2.8,0.896c-4.668,4.379-10.609,6.449-16.084,9.415c-3.228,1.749-6.395,3.565-9.87,4.608
			c-4.105,1.233-8.274,2.156-11.943,4.546c-2.282,1.487-4.589,1.212-7.1,0.125c-10.106-4.371-21.231-7.163-30.196-13.191
			c-10.353-6.961-22.172-10.155-32.756-16.172c-3.487-1.982-5.571-5.417-9.12-7.497c-5.799-3.4-11.756-6.525-17.505-10.001
			c-2.962-1.79-6.006-2.188-8.97-0.74c-4.307,2.106-8.172,0.936-11.803-1.212c-9.235-5.463-18.43-10.969-27.249-17.143
			c-4.479-3.136-9.508-5.751-15.271-6.882c-6.306-1.237-12.76-2.987-18.383-5.964c-3.459-1.831-6.509-3.124-10.387-3.428
			c-9.198-0.721-17.257-4.728-24.434-10.238c-5.805-4.458-12.784-7.219-18.111-12.129c-6.945-6.401-14.689-11.607-23.111-15.396
			c-6.998-3.148-12.775-7.922-19.127-11.875c-3.928-2.443-7.591-5.6-10.885-9.158c-5.308-5.736-8.471-12.63-12.355-19.198
			c-2.495-4.217-7.834-5.526-12.447-6.068c-9.843-1.156-19.636,0.527-29.375,2.003c-0.93,0.141-1.932,0.572-2.66,1.165
			c-7.865,6.395-17.293,10.238-25.664,15.8c-0.828,0.55-1.946,0.915-2.438,1.682c-8.165,12.697-20.445,21.652-30.049,33.078
			c-7.104,8.453-14.939,16.295-21.853,24.977c-2.429,3.049-7.217,3.49-11.001,3.846c-8.835,0.831-15.603,6.151-23.211,9.601
			c-2.951,1.338-5.438,3.677-8.199,5.464c-6.073,3.928-7.485,11.484-12.618,16.178c-0.736,0.672-1.058,1.98-2.094,2.625
			c-5.451,3.396-9.512,8.199-13.456,13.153c-2.154,2.707-4.165,5.495-7.175,7.517c-10.623,7.135-21.087,14.758-29.747,24.044
			c-7.148,7.665-15.883,11.534-24.833,15.679c-1.339,0.621-2.934,1.233-3.759,2.336c-4.583,6.125-12.253,8.565-17.119,13.945
			c-7.089,7.839-17.083,11.616-24.241,19.377c-5.447,5.908-12.598,10.251-19.028,15.242c-1.067,0.828-2.434,1.297-3.777,1.026
			c-5.178-1.047-8.522,1.354-11.215,5.474c-3.251,4.975-7.075,9.517-10.259,14.598c-5.324,8.495-16.806,14.38-27.467,2.484
			c-3.102-3.46-6.057-7.082-8.779-10.846c-4.935-6.821-10.787-12.163-18.955-15.096c-3.141-1.128-4.457-5.03-4.267-8.449
			c0.176-3.182-0.667-4.73-3.382-6.777c-3.071-2.316-4.42-6.668-7.132-9.8c-4.098-4.733-8.134-8.883-15.187-7.009
			c-0.693,0.184-1.772-0.061-2.322-0.523c-9.013-7.564-17.5-5.041-24.626,2.32c-6.508,6.723-14.128,9.3-22.998,9.702
			c-5.282,0.24-8.936,3.581-12.177,7.137c-5.487,6.021-11.928,10.524-19.412,13.599c-2.088,0.858-3.471,2.548-5.099,3.955
			c-2.368,2.045-4.752,3.194-8.16,3.798c-5.704,1.01-10.19,5.297-14.18,9.614c-1.463,1.583-2.954,3.189-4.117,4.989
			c-2.29,3.541-5.283,3.607-8.684,2.115c-2.206-0.968-4.311-1.273-6.754-0.575c-1.854,0.529-4.258,0.852-5.896,0.112
			c-6.571-2.966-13.013-0.686-19.47-0.013c-3.514,0.366-5.953-1.724-7.751-3.729c-6.172-6.88-13.848-11.883-20.78-17.803
			c-8.909-7.609-18.782-14.623-25.796-23.768c-7.184-9.365-16.809-14.676-25.668-21.431c-4.604-3.511-9.049-7.211-13.833-10.512
			c-8.195-5.656-15.079-4.812-20.293,2.339c-4.197,5.758-8.538,11.505-13.513,16.57c-3.601,3.665-8.078,6.706-12.637,9.139
			c-8.971,4.789-16.362,11.376-22.507,19.216c-5.767,7.357-12.623,12.126-21.979,13.338c-3.737,0.484-7.306,1.857-11.095,2.431
			c-2.747,0.416-5.614,1.42-7.927,4.266c-2.966,3.649-8.05,4.359-12.796,4.443c-4.63,0.082-8.777,1.418-13.193,2.906
			c-6.347,2.139-12.881,3.679-19.042,6.525c-1.593,0.735-3.96,0.149-5.876-0.271c-1.963-0.43-3.496-0.16-5.124,1.007
			c-4.752,3.405-9.189,2.864-13.815-0.724c-4.441-3.444-9.493-5.875-15.432-5.155c-1.599,0.194-2.48-0.877-3.41-1.746
			c-5.917-5.527-9.698-6.179-17.065-2.41c-2.408,1.232-4.479,0.942-6.585-0.299c-4.32-2.545-7.605-0.371-10.583,2.425
			c-5.381,5.052-11.188,7.573-18.688,4.908c-10.984-3.903-22.154-3.635-33.441-1.055c-5.373,1.228-10.773-0.45-16.105-0.778
			c-8.86-0.545-17.466-4.576-26.874-1.275c-5.505,1.931-11.881,1.975-17.115-3.687c-4.227-4.572-14.829-3.265-19.752,0.943
			c-4.586,3.921-7.486,9.667-13.295,12.252c-0.146,0.065-0.237,0.259-0.384,0.314c-6.996,2.646-14.335,4.408-20.591,8.914
			c-1.392,1.003-3.222-1.236-4.834-2.009c-3.639-1.744-6.849-1.81-8.678,2.454c-1.736,4.046-5.306,6.294-8.411,8.988
			c-2.562,2.221-5.317,0.666-7.385-0.641c-2.372-1.498-4.232-1.295-5.569,0.603c-1.872,2.658-5.306,1.079-7.468,3.402
			c-0.996,1.07-2.789-1.506-3.067-2.918c-0.936-4.752-4.791-5.797-8.429-6.746c-3.154-0.823-5.271-2.586-5.816-5.483
			c-1.956-10.394-9.315-13.168-19.442-13.799c-10.417-0.65-20.776-0.799-31.154,0.102c-4.16,0.361-6.45-1.582-7.97-5.269
			c-3.134-7.604-8.285-13.966-13.478-20.175c-6.247-7.471-15.834-8.293-25.031-3.382c-7,3.739-14.267,7.021-21.573,10.137
			c-10.426,4.447-20.131,10.146-29.465,16.476c-3.945,2.675-8.509,3.652-12.73,5.502c-6,2.629-10.7,6.218-14.057,11.884
			c-2.975,5.02-8.879,5.547-13.614,7.704c-7.595,3.459-14.144,8.655-21.556,12.389c-0.831,0.419-1.166,1.906-1.637,2.94
			c-1.003,2.201-2.441,3.97-4.733,4.891c-6.669,2.679-13.454,4.712-20.782,3.504c-0.971-0.16-2.292-0.782-2.866-0.371
			c-7.585,5.42-17.22,1.945-25.394,6.378c-6.457,3.502-14.738,3.144-21.799,6.183c-1.773,0.763-3.96,0.064-5.841-0.738
			c-2.191-0.935-4.609-1.661-6.814-1.022c-5.599,1.62-10.521-0.347-15.307-2.546c-8.19-3.765-16.857-5.7-25.552-7.759
			c-4.437-1.051-7.111-5.391-10.99-7.583c-10.459-5.911-19.457-14.333-32.907-14.715c-6.384-0.181-13.292-2.282-19.799-4.254
			c-3.882-1.176-5.315-4.653-6.827-7.521c-3.671-6.965-10.035-10.162-16.839-10.933c-4.696-0.532-10.158,1.626-14.596,3.909
			c-5.835,3.001-11.396,6.75-16.01,11.649c-6.809,7.229-15.307,9.932-25.095,9.229c-1.586-0.114-3.227,0.542-4.842,0.842
			C-8,314.247-7.986,159.442-8.09,4.637C-8.092,0.95-7.337,0.015-3.526,0.015C1273.578,0.114,2550.682,0.114,3827.786,0
			c4.09,0,4.842,0.86,4.84,4.878c-0.117,357.103-0.115,714.206-0.002,1071.308c0,3.966-0.672,4.905-4.813,4.905
			c-1277.104-0.118-2554.208-0.115-3831.313-0.177C-4.965,1080.915-6.892,1082.067-8,1079.977z"/>
	</g>
</g>
</svg>
